<?xml version="1.0" standalone="no"?>
<!DOCTYPE svg PUBLIC "-//W3C//DTD SVG 20010904//EN"
 "http://www.w3.org/TR/2001/REC-SVG-20010904/DTD/svg10.dtd">
<svg version="1.0" xmlns="http://www.w3.org/2000/svg"
 width="516.000000pt" height="516.000000pt" viewBox="0 0 516.000000 516.000000"
 preserveAspectRatio="xMidYMid meet">
<metadata>
Created by potrace 1.14, written by Peter Selinger 2001-2017
</metadata>
<g transform="translate(0.000000,516.000000) scale(0.100000,-0.100000)"
fill="#000000" stroke="none">
<path d="M814 5008 c-371 -355 -609 -826 -701 -1383 -28 -171 -25 -603 5 -779
47 -270 115 -485 227 -711 293 -594 791 -1012 1389 -1165 190 -49 246 -55 486
-55 189 1 243 4 340 22 605 115 1112 480 1442 1036 207 349 325 757 342 1182
5 130 3 125 -20 -70 -62 -527 -280 -989 -643 -1366 -82 -86 -91 -93 -110 -82
-11 7 -40 13 -63 13 l-42 0 49 32 c27 18 59 39 72 46 25 14 22 32 -5 32 -9 0
-35 -12 -57 -25 -47 -29 -60 -31 -51 -8 4 10 4 46 0 81 -5 47 -11 65 -26 73
-16 8 -26 3 -61 -34 -24 -24 -56 -47 -73 -51 -16 -4 -38 -16 -50 -27 -19 -18
-24 -18 -61 -5 -22 8 -60 24 -84 36 -60 31 -227 157 -240 182 -6 11 -19 55
-29 97 -10 42 -26 94 -35 116 -14 31 -16 56 -10 120 5 70 3 90 -20 163 -23 72
-31 86 -67 112 -34 25 -51 30 -97 30 -31 0 -67 7 -81 15 -14 8 -35 19 -46 24
-34 15 -66 69 -72 117 -4 36 1 56 23 100 15 30 31 57 36 59 14 9 31 115 21
128 -5 7 -13 38 -17 70 -9 79 -27 117 -73 159 -31 28 -37 39 -30 52 7 12 4 28
-9 53 -21 40 -59 57 -100 47 -29 -8 -57 -58 -49 -89 5 -19 -1 -28 -29 -45 -24
-15 -46 -43 -66 -82 -26 -51 -30 -70 -27 -119 2 -33 0 -59 -4 -59 -4 0 -5 -21
-1 -47 6 -46 31 -103 66 -154 23 -32 22 -106 -3 -146 -32 -53 -93 -91 -158
-98 -77 -9 -107 -21 -141 -60 -38 -43 -56 -146 -47 -267 4 -61 2 -98 -8 -125
-7 -21 -19 -69 -25 -108 -7 -38 -17 -81 -22 -95 -17 -45 -250 -196 -352 -230
-33 -10 -41 -9 -65 6 -15 10 -43 26 -62 35 -20 9 -51 32 -70 53 -20 21 -44 36
-57 36 -22 0 -23 -4 -23 -75 0 -84 -1 -84 -67 -59 -41 16 -73 14 -73 -5 0 -5
11 -12 25 -15 17 -4 25 -12 23 -23 -2 -11 7 -19 27 -24 55 -12 105 -39 105
-55 0 -11 5 -14 17 -9 10 4 36 9 57 13 36 5 39 3 31 -14 -28 -69 -29 -72 -15
-114 8 -23 30 -56 52 -75 21 -19 36 -35 33 -35 -12 0 -171 103 -243 157 -101
76 -278 248 -359 348 -550 682 -684 1633 -347 2460 104 253 264 502 448 693
38 39 66 72 62 72 -3 0 -45 -37 -92 -82z m1835 -2946 c6 -35 31 -100 55 -145
41 -78 46 -84 122 -130 45 -27 116 -59 164 -73 47 -14 92 -28 100 -31 20 -7
-110 -48 -250 -78 -63 -14 -130 -29 -148 -34 -39 -12 -52 5 -52 71 0 31 -8 56
-30 88 -16 24 -32 56 -35 71 -6 25 13 171 35 279 5 25 9 49 10 55 1 25 18 -17
29 -73z m-643 -143 c6 -65 3 -88 -19 -160 -14 -46 -28 -101 -32 -121 -5 -30
-11 -39 -32 -44 -26 -7 -243 17 -353 38 -62 12 -64 11 75 48 85 23 254 105
265 130 14 31 43 117 59 177 14 56 17 59 23 35 4 -15 11 -61 14 -103z m1434
-128 c0 -16 -5 -42 -10 -56 -9 -23 -13 -25 -25 -15 -19 16 -19 33 0 70 20 38
35 38 35 1z m-2230 -77 c0 -12 -5 -26 -10 -29 -12 -8 -30 36 -30 73 l1 27 19
-24 c11 -13 20 -34 20 -47z m2132 -104 c17 -16 31 -30 32 -30 1 0 16 -4 33 -9
41 -12 55 4 19 21 -14 6 -26 14 -26 17 0 3 36 6 80 6 44 0 80 -3 80 -7 0 -28
-404 -298 -446 -298 -15 0 43 54 99 92 44 30 63 51 78 86 22 51 19 80 -12 124
l-20 28 25 0 c15 0 39 -13 58 -30z"/>
<path d="M3860 4452 c0 -4 15 -23 34 -41 78 -75 89 -142 71 -408 -7 -107 -5
-132 14 -215 37 -159 108 -278 229 -382 l57 -49 12 192 c6 106 13 194 15 197
19 18 117 -283 118 -360 l1 -31 40 44 c54 60 106 170 126 266 13 66 14 94 5
162 -36 270 -204 483 -460 582 -103 39 -262 66 -262 43z"/>
<path d="M5005 3764 c-46 -66 -117 -122 -235 -183 -105 -55 -204 -150 -250
-241 -33 -66 -73 -170 -64 -170 2 0 61 21 130 46 69 25 128 43 131 40 11 -11
-100 -115 -162 -151 -66 -38 -66 -39 -42 -51 13 -8 50 -17 81 -22 235 -37 462
162 491 430 6 58 -9 211 -33 327 l-7 33 -40 -58z"/>
<path d="M3631 3653 c-20 -84 -29 -212 -20 -287 33 -266 328 -439 553 -324
l39 20 -54 22 c-68 28 -126 65 -163 104 l-28 30 43 -10 c153 -34 214 -46 218
-42 14 13 -62 126 -129 194 -74 75 -85 82 -260 164 -71 33 -125 78 -160 134
l-27 44 -12 -49z"/>
<path d="M994 938 c-16 -31 -16 -32 11 -54 l27 -22 -77 -116 c-102 -154 -150
-193 -185 -150 -19 22 -2 64 38 90 l33 22 -23 16 c-36 26 -73 20 -103 -16 -22
-26 -26 -39 -22 -71 6 -46 37 -82 84 -98 82 -27 136 11 252 175 l81 114 38 -5
c28 -4 44 0 61 15 l25 19 -53 18 c-28 9 -75 32 -103 51 -28 19 -55 37 -59 40
-5 2 -16 -10 -25 -28z"/>
<path d="M3673 849 c-51 -32 -75 -80 -75 -147 1 -173 153 -272 246 -161 26 30
49 96 40 111 -10 16 -34 8 -34 -12 0 -33 -22 -70 -46 -76 -39 -10 -58 0 -91
48 -54 82 -63 187 -17 205 22 8 54 -30 54 -63 0 -28 21 -32 44 -8 24 23 20 77
-7 102 -29 28 -72 28 -114 1z"/>
<path d="M1389 806 c-56 -20 -104 -51 -104 -67 0 -15 1 -15 110 -1 52 6 60 10
63 30 3 22 -13 53 -27 52 -3 -1 -22 -7 -42 -14z"/>
<path d="M2578 771 l-32 -39 -18 29 c-13 21 -25 29 -47 29 -31 0 -49 -14 -31
-25 6 -4 22 -29 36 -56 13 -28 31 -52 39 -55 16 -6 125 98 125 119 0 14 -19
37 -31 37 -5 0 -23 -18 -41 -39z"/>
<path d="M3390 699 c-20 -11 -47 -37 -60 -57 -21 -30 -25 -47 -25 -106 0 -116
57 -189 147 -189 61 0 126 59 131 117 3 42 -17 42 -32 1 -26 -72 -93 -82 -132
-19 -24 39 -20 50 22 59 16 4 46 22 65 41 44 45 47 97 8 143 -31 37 -72 41
-124 10z m60 -48 c19 -36 12 -80 -17 -107 -14 -13 -31 -23 -37 -21 -15 5 -20
115 -5 133 16 20 47 17 59 -5z"/>
<path d="M1185 696 c-101 -44 -166 -195 -119 -276 41 -68 145 -84 218 -33 81
57 133 169 106 232 -22 53 -96 66 -165 30 -25 -14 -35 -16 -27 -7 6 8 30 23
52 33 22 10 37 22 34 26 -8 13 -65 10 -99 -5z m123 -68 c32 -32 -5 -135 -69
-193 -46 -42 -82 -45 -104 -11 -51 78 110 267 173 204z"/>
<path d="M3070 692 c0 -5 7 -30 16 -56 l17 -48 -32 -25 c-32 -25 -37 -38 -22
-62 7 -11 13 -10 34 4 30 19 29 23 47 -102 12 -86 22 -115 50 -143 26 -26 76
-28 65 -3 -15 36 -44 164 -50 227 -7 63 -7 64 21 78 20 9 30 22 32 41 4 30
-12 35 -42 12 -23 -17 -36 -11 -36 16 0 28 -44 69 -75 69 -14 0 -25 -4 -25 -8z"/>
<path d="M2630 626 c0 -19 -45 -26 -166 -26 -101 0 -104 -1 -104 -22 0 -13 3
-33 6 -45 8 -29 40 -30 149 -4 44 11 81 18 83 16 12 -12 -172 -297 -240 -372
-27 -30 -48 -56 -46 -58 2 -2 21 0 43 5 22 5 93 10 157 10 114 0 117 1 137 26
29 37 28 68 -1 60 -37 -9 -189 -28 -194 -24 -2 3 24 45 58 94 162 234 168 244
168 283 0 24 -7 44 -18 54 -23 21 -32 21 -32 3z"/>
<path d="M1525 552 c-81 -39 -137 -121 -138 -205 -1 -42 3 -53 27 -73 39 -34
92 -32 144 6 l41 29 -15 -42 c-21 -59 -60 -122 -90 -146 -61 -48 -129 -4 -92
59 19 33 15 40 -23 40 -28 0 -69 -39 -69 -67 0 -30 31 -71 61 -82 113 -39 201
14 278 166 28 57 124 324 117 330 -1 1 -17 -5 -36 -15 -25 -13 -43 -37 -76
-101 -55 -107 -98 -153 -139 -149 -27 3 -30 7 -33 41 -6 76 73 167 161 183 33
5 37 9 25 20 -24 24 -98 27 -143 6z"/>
<path d="M2915 518 c13 -44 17 -173 6 -214 -14 -52 -55 -93 -79 -78 -30 19
-44 80 -32 143 10 54 51 131 70 131 6 0 10 5 10 10 0 14 -35 12 -75 -4 -97
-41 -135 -247 -59 -322 50 -51 136 -16 174 69 l18 39 7 -30 c7 -36 30 -58 68
-67 32 -8 32 -9 11 41 -9 22 -19 86 -23 158 -4 67 -10 127 -15 134 -4 6 -25
12 -48 12 -37 0 -40 -2 -33 -22z"/>
<path d="M1875 478 c-86 -47 -147 -191 -115 -268 15 -36 37 -50 80 -50 38 0
65 13 109 54 25 22 32 26 27 12 -14 -39 25 -106 61 -106 5 0 7 17 5 39 -4 35
12 103 52 233 13 43 13 49 -2 68 -9 11 -28 21 -42 22 -23 3 -25 -1 -32 -55
-19 -146 -132 -275 -170 -192 -25 55 44 185 118 220 27 13 33 19 23 26 -20 12
-90 11 -114 -3z"/>
</g>
</svg>
