<?xml version="1.0" standalone="no"?>
<!DOCTYPE svg PUBLIC "-//W3C//DTD SVG 20010904//EN"
 "http://www.w3.org/TR/2001/REC-SVG-20010904/DTD/svg10.dtd">
<svg version="1.0" xmlns="http://www.w3.org/2000/svg"
 width="493.000000pt" height="493.000000pt" viewBox="0 0 493.000000 493.000000"
 preserveAspectRatio="xMidYMid meet">
<metadata>
Created by potrace 1.14, written by Peter Selinger 2001-2017
</metadata>
<g transform="translate(0.000000,493.000000) scale(0.100000,-0.100000)"
fill="#000000" stroke="none">
<path d="M1851 3773 c-45 -48 -81 -91 -81 -95 0 -4 31 -8 69 -8 l69 0 111 86
c61 48 111 90 111 95 0 5 -45 9 -99 9 l-99 0 -81 -87z"/>
<path d="M1756 3615 c-278 -71 -418 -356 -301 -613 28 -62 110 -151 171 -187
25 -14 81 -35 127 -47 236 -60 478 53 558 259 33 86 37 203 10 291 -40 133
-154 248 -285 288 -75 22 -209 27 -280 9z m245 -193 c179 -92 179 -372 0 -464
-43 -23 -66 -28 -122 -28 -80 0 -120 14 -173 60 -62 55 -81 102 -81 200 0 98
19 145 81 200 54 47 89 59 170 60 59 0 81 -5 125 -28z"/>
<path d="M2785 3619 c-141 -29 -280 -137 -326 -256 -47 -122 -35 -293 28 -400
32 -56 119 -134 179 -162 153 -72 354 -62 517 26 l47 26 0 179 0 178 -90 0
-90 0 0 -125 c0 -148 2 -146 -128 -153 -102 -6 -157 13 -218 74 -123 122 -85
348 70 420 40 18 68 24 126 24 82 0 132 -17 188 -64 l32 -28 64 59 c49 45 61
62 55 75 -14 26 -126 96 -183 113 -65 20 -206 27 -271 14z"/>
<path d="M790 3530 l0 -80 146 0 145 0 -3 -236 -3 -236 -33 -29 c-53 -48 -134
-36 -200 31 -18 18 -37 29 -41 24 -4 -5 -30 -35 -57 -68 l-49 -59 48 -43 c64
-58 129 -79 242 -79 80 0 97 3 150 30 72 36 119 93 134 165 7 31 11 173 11
355 l0 305 -245 0 -245 0 0 -80z"/>
<path d="M3666 3602 c-12 -20 -366 -817 -366 -824 0 -5 46 -7 102 -6 l102 3
36 85 36 85 191 3 191 2 37 -90 38 -90 103 0 c57 0 104 2 104 5 0 3 -83 191
-185 418 l-184 412 -100 3 c-55 1 -102 -1 -105 -6z m170 -355 c31 -75 55 -140
52 -143 -3 -2 -59 -3 -125 -2 l-121 3 61 147 c34 81 64 144 68 140 4 -4 33
-69 65 -145z"/>
<path d="M776 2290 c76 -75 84 -80 124 -80 40 0 48 5 124 80 l81 80 -45 0
c-39 0 -53 -6 -100 -45 -30 -25 -58 -45 -61 -45 -4 0 -31 20 -61 45 -47 38
-62 45 -99 45 l-44 0 81 -80z"/>
<path d="M3963 2145 c-123 -34 -223 -115 -276 -224 -31 -63 -32 -71 -32 -186
0 -149 20 -206 102 -295 94 -102 216 -147 370 -137 92 5 201 48 247 96 l26 27
-29 28 -29 28 -50 -34 c-68 -47 -125 -61 -224 -56 -161 9 -276 100 -314 250
-42 163 33 327 185 400 33 16 70 23 133 26 99 5 151 -8 223 -58 l47 -32 30 28
30 29 -42 37 c-23 20 -67 47 -98 59 -74 28 -224 35 -299 14z"/>
<path d="M560 2110 l0 -40 270 -2 269 -3 -274 -345 c-230 -290 -274 -350 -275
-377 l0 -33 350 0 350 0 0 40 0 40 -280 0 c-154 0 -280 2 -280 5 0 3 122 159
270 347 232 293 270 345 270 374 l0 34 -335 0 -335 0 0 -40z"/>
<path d="M1475 1738 c-103 -227 -190 -417 -192 -421 -3 -4 19 -7 48 -5 l53 3
47 105 48 105 233 2 233 3 49 -110 49 -110 48 0 c27 0 49 2 49 4 0 3 -85 190
-189 418 l-188 413 -50 3 -49 3 -189 -413z m338 85 l95 -213 -194 0 c-107 0
-194 2 -194 4 0 2 32 76 71 163 39 87 82 182 95 212 13 30 26 52 28 50 2 -2
47 -100 99 -216z"/>
<path d="M2100 2110 l0 -40 150 0 150 0 0 -380 0 -380 45 0 45 0 0 380 0 380
150 0 150 0 0 40 0 40 -345 0 -345 0 0 -40z"/>
<path d="M2920 1730 l0 -420 300 0 300 0 0 40 0 40 -250 0 -250 0 0 150 0 150
215 0 215 0 0 45 0 45 -215 0 -215 0 0 145 0 145 243 2 242 3 3 38 3 37 -295
0 -296 0 0 -420z"/>
</g>
</svg>
